HIERARCHY
ROOT Hips
{
 OFFSET 0.000000 0.000000 0.000000
 CHANNELS 6 Xposition Yposition Zposition Yrotation Xrotation Zrotation
 JOINT Chest
 {
  OFFSET 0.000000 9.585900 0.002600
  CHANNELS 3 Yrotation Xrotation Zrotation
  JOINT Chest2
  {
   OFFSET 0.000000 9.601200 -0.005300
   CHANNELS 3 Yrotation Xrotation Zrotation
   JOINT Chest3
   {
    OFFSET 0.000000 9.561800 0.000000
    CHANNELS 3 Yrotation Xrotation Zrotation
    JOINT Chest4
    {
     OFFSET 0.000000 9.552100 0.000000
     CHANNELS 3 Yrotation Xrotation Zrotation
     JOINT Neck
     {
      OFFSET 0.000000 14.453000 0.000000
      CHANNELS 3 Yrotation Xrotation Zrotation
      JOINT Head
      {
       OFFSET 0.000000 8.936500 -0.011300
       CHANNELS 3 Yrotation Xrotation Zrotation
       End Site
       {
        OFFSET 0.000000 17.073600 -0.006000
       }
      }
     }
     JOINT RightCollar
     {
      OFFSET -2.921100 9.558500 0.000000
      CHANNELS 3 Yrotation Xrotation Zrotation
      JOINT RightShoulder
      {
       OFFSET -13.519700 0.000000 0.000000
       CHANNELS 3 Yrotation Xrotation Zrotation
       JOINT RightElbow
       {
        OFFSET 0.000000 -29.696600 0.000000
        CHANNELS 3 Yrotation Xrotation Zrotation
        JOINT RightWrist
        {
         OFFSET 0.000000 -24.004700 0.000000
         CHANNELS 3 Yrotation Xrotation Zrotation
         End Site
         {
          OFFSET 0.000000 -17.728500 0.000000
         }
        }
       }
      }
     }
     JOINT LeftCollar
     {
      OFFSET 2.921100 9.558500 0.000000
      CHANNELS 3 Yrotation Xrotation Zrotation
      JOINT LeftShoulder
      {
       OFFSET 13.519700 0.000000 0.000000
       CHANNELS 3 Yrotation Xrotation Zrotation
       JOINT LeftElbow
       {
        OFFSET 0.000000 -29.696600 0.000000
        CHANNELS 3 Yrotation Xrotation Zrotation
        JOINT LeftWrist
        {
         OFFSET 0.000000 -24.004700 0.000000
         CHANNELS 3 Yrotation Xrotation Zrotation
         End Site
         {
          OFFSET 0.000000 -17.728500 0.000000
         }
        }
       }
      }
     }
    }
   }
  }
 }
 JOINT RightHip
 {
  OFFSET -7.771700 -0.012900 -0.001300
  CHANNELS 3 Yrotation Xrotation Zrotation
  JOINT RightKnee
  {
   OFFSET 0.000000 -40.869800 0.001200
   CHANNELS 3 Yrotation Xrotation Zrotation
   JOINT RightAnkle
   {
    OFFSET 0.000000 -39.717900 0.002100
    CHANNELS 3 Yrotation Xrotation Zrotation
    JOINT RightToe
    {
     OFFSET 0.000000 -4.965400 11.033500
     CHANNELS 3 Yrotation Xrotation Zrotation
     End Site
     {
      OFFSET 0.000000 -1.423100 5.872300
     }
    }
   }
  }
 }
 JOINT LeftHip
 {
  OFFSET 7.771700 -0.012900 -0.001300
  CHANNELS 3 Yrotation Xrotation Zrotation
  JOINT LeftKnee
  {
   OFFSET 0.000000 -40.869800 0.001200
   CHANNELS 3 Yrotation Xrotation Zrotation
   JOINT LeftAnkle
   {
    OFFSET 0.000000 -39.717900 0.002100
    CHANNELS 3 Yrotation Xrotation Zrotation
    JOINT LeftToe
    {
     OFFSET 0.000000 -4.965400 11.033500
     CHANNELS 3 Yrotation Xrotation Zrotation
     End Site
     {
      OFFSET 0.000000 -1.423100 5.872300
     }
    }
   }
  }
 }
}
MOTION
Frames: 7
Frame Time: 0.008333
0.000000 85.388000 0.000000 0.000000 -5.767877 0.000000 0.000000 11.653817 0.000000 0.000000 -5.885947 0.000000 0.000000 -0.000000 0.000000 0.000000 -0.000000 0.000000 0.000000 12.528835 0.000000 0.000000 0.711642 0.000000 0.000000 -0.000000 0.000000 0.000000 0.000000 -90.000000 0.000000 -2.309062 0.000000 0.000000 2.309062 0.000000 0.000000 -0.000000 0.000000 0.000000 -0.000000 90.000000 0.000000 -2.309062 0.000000 0.000000 2.309062 0.000000 0.000000 8.520406 0.000000 0.000000 1.905762 0.000000 -0.000000 -4.658285 0.000000 0.000000 -0.000000 0.000000 0.000000 8.520406 0.000000 0.000000 1.905762 0.000000 -0.000000 -4.658285 0.000000 0.000000 -0.000000 0.000000
-16.395774 55.261148 -31.617495 -179.176719 -16.391441 -1.845347 0.276913 16.307262 -0.196695 0.030965 1.624527 -0.009035 0.051721 2.718348 -0.014609 0.271380 14.430553 -0.050179 1.326285 13.171629 5.760722 0.051401 -11.743071 5.839524 0.295608 -0.060700 2.669048 1.962038 -5.615504 -7.537210 -86.296709 -65.817901 115.255191 -13.191480 -4.181130 0.831757 -6.824440 -2.293243 2.152122 3.965072 -9.881056 8.687186 71.617241 -60.378402 -110.013450 4.619705 -10.299522 5.291732 0.383632 -58.540388 12.001599 -104.173635 88.629842 -108.569934 -10.192127 -22.252452 12.176377 -0.035352 -0.046249 0.030902 9.494313 -55.360068 -5.872155 113.636684 77.292185 111.502934 -7.012955 -23.457417 0.921538 0.027523 0.168882 0.006405
-16.395466 55.260569 -31.618500 -179.174994 -16.381453 -1.847807 0.255459 16.300630 -0.198993 0.028910 1.623331 -0.009488 0.048268 2.716374 -0.015447 0.252434 14.426106 -0.056542 1.346730 13.199628 5.731762 0.042129 -11.664930 5.773910 0.310462 -0.047791 2.668293 1.931695 -5.620345 -7.508453 -86.285606 -65.815433 115.251076 -13.187083 -4.174311 0.836172 -6.794140 -2.284598 2.144674 3.955180 -9.875356 8.683612 71.621205 -60.382482 -110.012526 4.611570 -10.304601 5.299660 0.377305 -58.551950 12.013362 -104.085951 88.617466 -108.476214 -10.216878 -22.246447 12.162291 0.003881 -0.043241 0.038991 9.487997 -55.371833 -5.866281 113.643495 77.293110 111.513517 -7.020680 -23.456670 0.915302 0.037703 0.168289 0.010638
-16.396064 55.259897 -31.619694 -179.175278 -16.370194 -1.843665 0.238997 16.293112 -0.206125 0.027323 1.622527 -0.009752 0.040620 2.715909 -0.016457 0.233574 14.422607 -0.061151 1.314475 13.288741 5.657609 0.078270 -11.643072 5.747674 0.303305 -0.029803 2.671158 1.917366 -5.629956 -7.491315 -86.277827 -65.813805 115.257280 -13.189561 -4.166797 0.839464 -6.794991 -2.265315 2.124872 3.936028 -9.869878 8.678942 71.666846 -60.407177 -110.015488 4.630991 -10.293051 5.289563 0.384528 -58.563424 11.995111 -104.167358 88.615635 -108.567483 -10.123793 -22.256722 12.145436 -0.024475 -0.047054 0.031909 9.491450 -55.379379 -5.870995 113.645437 77.289156 111.510379 -7.024041 -23.465864 0.919351 0.035693 0.173240 0.009854
-16.395777 55.259629 -31.622481 -179.174989 -16.367079 -1.844150 0.222255 16.295903 -0.210468 0.037679 1.617869 -0.009129 0.034683 2.716332 -0.017163 0.205234 14.421802 -0.065788 1.299844 13.355979 5.607835 0.093406 -11.599978 5.708045 0.302821 -0.014692 2.670703 1.850256 -5.625579 -7.452451 -86.254051 -65.821977 115.297722 -13.177525 -4.151595 0.859220 -6.842194 -2.227867 2.104428 3.958693 -9.887142 8.673944 71.682042 -60.426063 -110.005506 4.634087 -10.292283 5.290805 0.371950 -58.564409 12.005949 -104.220332 88.611248 -108.630289 -10.098280 -22.260645 12.139810 0.015717 -0.045443 0.033056 9.487010 -55.381477 -5.865422 113.658001 77.284599 111.518017 -7.022639 -23.472223 0.922236 0.033693 0.173848 0.008439
-16.395063 55.259363 -31.625342 -179.173244 -16.363385 -1.846392 0.201652 16.300029 -0.214543 0.039509 1.614234 -0.011304 0.041369 2.713685 -0.016243 0.178757 14.421696 -0.070476 1.292378 13.411344 5.569159 0.094420 -11.542937 5.665626 0.299265 0.003743 2.669707 1.866708 -5.637564 -7.445782 -86.256560 -65.799704 115.259643 -13.168761 -4.141569 0.869690 -6.852303 -2.212971 2.090482 3.956969 -9.889692 8.663769 71.617240 -60.408069 -109.961623 4.628509 -10.290980 5.288245 0.363940 -58.566927 12.013460 -104.262143 88.609431 -108.672788 -10.096401 -22.262572 12.135673 0.008645 -0.042684 0.025377 9.471736 -55.386030 -5.851227 113.681076 77.281813 111.532489 -7.017356 -23.475021 0.923874 0.039562 0.171389 0.009090
-16.395181 55.258465 -31.626040 -179.173712 -16.345958 -1.841545 0.184289 16.288385 -0.224209 0.038581 1.615329 -0.009439 0.018753 2.715618 -0.019147 0.183961 14.413751 -0.077916 1.280122 13.468244 5.532641 0.089747 -11.484230 5.626872 0.290765 0.016583 2.672647 1.886510 -5.642837 -7.440647 -86.253613 -65.799874 115.259739 -13.171681 -4.146526 0.840445 -6.865258 -2.197562 2.073198 3.954943 -9.893215 8.656967 71.581917 -60.402834 -109.935658 4.584357 -10.311630 5.325059 0.367660 -58.586876 12.009987 -104.315511 88.607872 -108.720552 -10.126909 -22.257524 12.131769 0.048639 -0.040570 0.033720 9.468888 -55.403125 -5.853042 113.695753 77.279724 111.538982 -7.011909 -23.479047 0.921982 0.034541 0.172693 0.009525
